<svg width="64" height="64" viewBox="0 0 64 64" fill="none" xmlns="http://www.w3.org/2000/svg">
<path d="M12.7989 15.3386C12.8903 15.7095 13.8961 17.2856 15.0848 18.8616C17.8278 22.1993 19.3821 21.1794 16.822 17.7491C14.9933 15.2459 12.7989 13.8552 12.7989 15.3386Z" fill="#9FDB3D"/>
<path d="M47.6352 17.1001C45.6236 19.696 45.1665 21.1794 46.4465 21.1794C47.178 21.1794 51.2011 16.173 51.2011 15.1532C51.2011 13.9479 49.281 14.9678 47.6352 17.1001Z" fill="#9FDB3D"/>
<path d="M19.565 23.9608C17.1877 24.8879 15.9077 26.7421 17.5535 26.7421C19.1078 26.7421 22.5823 24.3316 21.9423 23.6826C21.668 23.4045 20.5708 23.5899 19.565 23.9608Z" fill="#9FDB3D"/>
<path d="M42.0577 24.0535C42.0577 24.9806 45.075 26.7421 46.7208 26.7421C47.5437 26.7421 47.5437 26.464 46.7208 25.4442C45.4408 23.8681 42.0577 22.8482 42.0577 24.0535Z" fill="#9FDB3D"/>
<path d="M13.4389 38.8873C8.86726 39.9999 6.21568 41.4832 6.85572 42.5958C7.22145 43.0593 8.22722 42.9666 9.41586 42.3176C10.5131 41.6687 13.0732 41.0197 15.0848 40.7416C17.0963 40.3707 18.6507 39.8144 18.5592 39.2582C18.3764 38.0529 17.462 37.9602 13.4389 38.8873Z" fill="#9FDB3D"/>
<path d="M45.3493 38.5165C44.3435 39.629 45.8979 40.6488 48.5495 40.6488C50.1039 40.6488 52.4811 41.2978 53.9441 42.0395C55.6813 42.9666 56.7785 43.0593 57.1443 42.5031C58.15 40.927 46.8123 37.1258 45.3493 38.5165Z" fill="#9FDB3D"/>
<path d="M13.8047 44.9136C12.2503 46.2115 10.9702 47.8803 10.9702 48.622C10.9702 50.4763 11.4274 50.2908 14.4447 47.1386C15.9991 45.5625 17.9192 44.3573 18.6507 44.3573C19.4736 44.3573 20.1136 43.8937 20.1136 43.4302C20.1136 41.6687 16.6391 42.5031 13.8047 44.9136Z" fill="#9FDB3D"/>
<path d="M43.8864 43.4302C43.8864 43.8937 44.5264 44.3573 45.3493 44.3573C46.0808 44.3573 48.0009 45.5625 49.5553 47.1386C52.5726 50.2908 53.0298 50.4763 53.0298 48.622C53.0298 46.8605 47.818 42.5031 45.6236 42.5031C44.7093 42.5031 43.8864 42.8739 43.8864 43.4302Z" fill="#9FDB3D"/>
<path fill-rule="evenodd" clip-rule="evenodd" d="M19.3821 28.7818C16.9134 31.285 18.8335 35.0862 22.5823 35.0862C25.2339 35.0862 26.9711 32.0267 25.5996 29.5235C24.5024 27.4838 21.1194 27.0203 19.3821 28.7818ZM20.5708 32.3048C21.5765 33.9736 23.771 33.3246 23.771 31.3777C23.771 30.3579 23.2224 29.5235 22.4909 29.5235C20.8451 29.5235 19.8393 31.0068 20.5708 32.3048Z" fill="#9FDB3D"/>
<path fill-rule="evenodd" clip-rule="evenodd" d="M38.4004 29.4308C36.9374 32.3048 38.7661 35.2716 41.7834 34.9007C44.8922 34.5299 46.538 31.934 45.1665 29.7089C43.7035 27.2984 39.6804 27.113 38.4004 29.4308ZM41.8748 33.0465C42.6977 32.8611 43.4292 32.1194 43.4292 31.3777C43.4292 30.636 42.6977 29.8943 41.8748 29.7089C40.6862 29.5235 40.229 29.987 40.229 31.3777C40.229 32.7684 40.6862 33.2319 41.8748 33.0465Z" fill="#9FDB3D"/>
<path fill-rule="evenodd" clip-rule="evenodd" d="M8.59296 8.66338C6.12424 10.3322 5.20991 16.0803 6.39855 21.8284C7.22145 25.5369 7.13002 26.7421 5.48421 30.7287C2.4669 37.7748 2.10116 44.0792 4.387 48.7147C7.77005 55.2973 14.6276 58.264 21.4851 55.9462C24.5939 54.8337 26.4225 54.741 28.7998 55.39C30.8114 55.9462 33.1886 55.9462 35.2002 55.39C37.5775 54.741 39.4061 54.8337 42.5149 55.9462C49.3724 58.264 56.2299 55.2973 59.613 48.7147C61.8988 44.0792 61.5331 37.7748 58.5158 30.7287C56.87 26.7421 56.7785 25.5369 57.6014 21.8284C58.8815 15.8949 57.8757 10.3322 55.2242 8.57067C53.3955 7.27271 52.8469 7.27271 50.561 8.57067C49.1895 9.40507 46.9037 10.9812 45.5322 12.001C43.4292 13.7625 42.7892 13.8552 40.1376 12.9281C36.3888 11.6301 27.6112 11.6301 23.8624 12.9281C21.4851 13.7625 20.5708 13.6698 18.6507 12.2791C14.3533 9.21965 11.4274 7.27271 10.9702 7.27271C10.6959 7.27271 9.59873 7.92169 8.59296 8.66338ZM21.0279 17.9345C21.0279 17.1928 19.1078 15.1532 16.822 13.299C12.4332 9.96134 9.78159 9.21965 8.59296 11.1666C7.31288 13.2062 7.95292 22.9409 9.50729 25.3514C11.336 28.1328 11.4274 29.6162 9.69016 28.9672C8.22722 28.4109 5.66708 34.2517 4.93561 40.1853C3.5641 50.1981 13.3475 57.615 22.308 53.443C25.1425 52.2378 25.9654 50.0127 25.8739 44.0792C25.7825 39.629 26.7883 38.2383 27.7026 41.576C27.9769 42.7812 28.6169 43.2448 29.6227 42.8739C31.4514 42.1322 31.5428 39.1655 29.7142 38.4238C27.154 37.4966 28.3426 36.4768 32 36.4768C35.6573 36.4768 36.846 37.4966 34.2858 38.4238C32.4572 39.1655 32.5486 42.1322 34.3773 42.8739C35.383 43.2448 36.0231 42.7812 36.2974 41.576C37.2117 38.2383 38.2175 39.629 38.1261 44.1719C38.0346 50.0127 38.8575 52.2378 41.692 53.443C50.6525 57.615 60.4359 50.1981 59.0644 40.1853C58.3329 34.2517 55.7728 28.4109 54.3098 28.9672C52.664 29.6162 52.664 28.5963 54.4927 24.9806C55.9556 22.0138 56.5042 13.0208 55.407 11.0739C55.0413 10.5176 54.0355 10.054 53.1212 10.054C50.9268 10.054 42.972 16.2657 42.972 17.9345C42.972 18.6762 42.5149 19.3252 41.9663 19.3252C41.4177 19.3252 41.1434 18.4908 41.4177 17.5637C41.9663 15.2459 38.2175 13.7625 32 13.7625C25.7825 13.7625 22.0337 15.2459 22.5823 17.5637C22.8566 18.4908 22.5823 19.3252 22.0337 19.3252C21.4851 19.3252 21.0279 18.6762 21.0279 17.9345ZM36.7545 53.0722C37.5775 52.2378 35.8402 46.0261 34.5601 45.1917C33.9201 44.7281 32.7315 44.3573 32 44.3573C31.2685 44.3573 30.0799 44.7281 29.4398 45.1917C28.1598 46.0261 26.4225 52.2378 27.2454 53.0722C27.8855 53.8139 36.1145 53.8139 36.7545 53.0722Z" fill="#9FDB3D"/>
</svg>
