<svg width="64" height="64" viewBox="0 0 64 64" fill="none" xmlns="http://www.w3.org/2000/svg">
<path d="M12.4545 4.63633C10.4545 5.54542 7.45454 7.72724 5.81818 9.63633C3.27272 12.5454 2.90909 13.6363 2.90909 18.1818C2.90909 26.0909 6.63636 29.6363 12.3636 27.4545C14.5455 26.6363 14.7273 26.8181 14.7273 29.0909C14.8182 30.4545 15.3636 33 16 34.8181C16.9091 37.5454 16.9091 38.3636 15.9091 39.8181C14.0909 42.2727 14.4545 47.7272 16.5455 50.4545C17.5455 51.7272 18.3636 54.0909 18.3636 55.8182C18.3636 60.7272 19.3636 61.0909 32 61.0909C44.6364 61.0909 45.6364 60.7272 45.6364 55.8182C45.6364 54.0909 46.4545 51.7272 47.4545 50.4545C49.5455 47.7272 49.9091 42.2727 48.0909 39.8181C47.0909 38.3636 47.0909 37.5454 48 34.8181C48.6364 33 49.1818 30.4545 49.2727 29.0909C49.2727 26.8181 49.4545 26.6363 51.6364 27.4545C57.4545 29.7272 61.0909 26.0909 61.0909 18C61.0909 12.9091 60.9091 12.4545 57.1818 8.81815C53.0909 4.63633 47.2727 2.27269 43.5455 3.27269C42.2727 3.54542 40.0909 4.99997 38.7273 6.45451C36.7273 8.63633 35.5455 9.09088 31.8182 9.09088C28.7273 9.09088 27.0909 8.63633 26.2727 7.54542C24.4545 4.99997 20.8182 2.90906 18.3636 2.90906C17.0909 2.90906 14.4545 3.72724 12.4545 4.63633ZM24.4545 8.90906C26.6364 11.2727 28.3636 12.7272 28.3636 12.0909C28.3636 11.5454 29.9091 11.0909 32 11.0909C34.0909 11.0909 35.6364 11.5454 35.6364 12.0909C35.6364 12.7272 37.3636 11.2727 39.5455 8.90906C44 4.18178 45.7273 3.81815 51 6.54542C56.5455 9.3636 59.2727 13.1818 59.2727 18.2727C59.2727 23.4545 57.7273 25.8181 54.2727 25.8181C50.5454 25.8181 49.2727 23.5454 49.2727 16.3636C49.2727 11.5454 48.9091 9.99997 47.8182 9.54542C47.0909 9.27269 46 9.45451 45.3636 10.0909C44.6364 10.8181 44.7273 11.0909 45.9091 11.0909C47.7273 11.0909 48.0909 14.3636 46.3636 15C45.4545 15.3636 45.4545 15.6363 46.3636 16.6363C47.7273 18.0909 47.8182 28.3636 46.5454 33.0909C45.8182 35.7272 45.2727 36.2727 43.8182 35.9091C41.3636 35.2727 41.5455 35.9091 44.7273 39.0909C49.8182 44.1818 46.9091 52 40 52C33.8182 52 30.7273 46.9091 34.7273 43.3636C35.7273 42.4545 36.5455 40.9091 36.5455 40C36.5455 37.7272 32.7273 36.3636 29.7273 37.4545C27 38.5454 26.8182 41.0909 29.2727 43.3636C33.2727 46.9091 30.1818 52 24 52C17.0909 52 14.1818 44.1818 19.2727 39.0909C22.4545 35.9091 22.6364 35.2727 20.1818 35.9091C18.7273 36.2727 18.1818 35.7272 17.4545 33.0909C16.1818 28.3636 16.2727 18.0909 17.7273 16.6363C18.6364 15.6363 18.6364 15.3636 17.7273 15C15.9091 14.3636 16.2727 11.0909 18.0909 11.0909C19.2727 11.0909 19.3636 10.8181 18.6364 10.0909C18 9.45451 16.9091 9.27269 16.1818 9.54542C15.0909 9.99997 14.7273 11.5454 14.7273 16.3636C14.7273 23.5454 13.4545 25.8181 9.72727 25.8181C6.27272 25.8181 4.72727 23.4545 4.72727 18.2727C4.72727 13.2727 7.36363 9.45451 12.8182 6.54542C18 3.81815 20 4.18178 24.4545 8.90906ZM34.7273 40.0909C34.7273 40.5454 34.0909 41.3636 33.3636 42C32.2727 42.9091 31.7273 42.9091 30.6364 42C28.5455 40.2727 29 39.2727 32 39.2727C33.5455 39.2727 34.7273 39.6363 34.7273 40.0909ZM32.0909 54.7272C32.5455 54.7272 32.9091 54.0909 32.9091 53.3636C32.9091 52.5454 33.4545 52.2727 34.3636 52.6363C36.1818 53.2727 35.7273 57.3636 33.6364 58.7272C31.5455 60 28.9091 58.4545 28.5455 55.6363C28.1818 53.2727 30.4545 51.1818 30.9091 53.3636C31.0909 54.0909 31.6364 54.7272 32.0909 54.7272ZM26.6364 56.9091C27.2727 59.2727 27.1818 59.3636 24 59.0909C21.0909 58.8181 20.6364 58.4545 20.3636 56.2727C20.0909 53.8181 20.2727 53.7272 23 54C25.3636 54.2727 26.0909 54.9091 26.6364 56.9091ZM43.6364 56.2727C43.3636 58.4545 42.9091 58.8181 40 59.0909C37.1818 59.3636 36.6364 59.0909 37 58C37.2727 57.1818 37.6364 56 37.8182 55.3636C38 54.7272 39.4545 54.0909 41.0909 54C43.7273 53.8181 43.9091 54 43.6364 56.2727Z" fill="#9FDB3D"/>
<path d="M19.8182 19.7272C18.8182 20.4545 18.2727 21.2727 18.5455 21.5454C19.1818 22.2727 23.8182 20.0909 23.8182 19.0909C23.8182 17.9091 21.7273 18.2727 19.8182 19.7272Z" fill="#9FDB3D"/>
<path d="M40.1818 19.0909C40.1818 20.0909 44.8182 22.2727 45.4545 21.5454C46.0909 20.9091 42.8182 18.4545 41.3636 18.3636C40.7273 18.3636 40.1818 18.7272 40.1818 19.0909Z" fill="#9FDB3D"/>
<path d="M21.6364 23.7272C19.7273 25.8181 20.3636 28.9091 22.8182 29.7272C26.9091 31 29.7273 26.8181 26.9091 23.7272C26.0909 22.8181 24.9091 22 24.2727 22C23.6364 22 22.4545 22.8181 21.6364 23.7272ZM25.9091 25.3636C26.2727 25.6363 26.0909 26.4545 25.5455 27.1818C24.7273 28.0909 24.1818 28.0909 23.2727 27.3636C22.5455 26.8181 22.2727 26 22.5455 25.5454C23.0909 24.5454 25.0909 24.4545 25.9091 25.3636Z" fill="#9FDB3D"/>
<path d="M37.0909 23.7272C35.1818 25.8181 35.8182 28.9091 38.2727 29.7272C42.3636 31 45.1818 26.8181 42.3636 23.7272C41.5454 22.8181 40.3636 22 39.7273 22C39.0909 22 37.9091 22.8181 37.0909 23.7272ZM41.3636 25.3636C41.7273 25.6363 41.5454 26.4545 41 27.1818C40.1818 28.0909 39.6364 28.0909 38.7273 27.3636C38 26.8181 37.7273 26 38 25.5454C38.5454 24.5454 40.5454 24.4545 41.3636 25.3636Z" fill="#9FDB3D"/>
<path d="M26.5455 45.7272C26.5455 46.1818 27 46.3636 27.4545 46.0909C28 45.8181 28.3636 45.3636 28.3636 45.0909C28.3636 44.9091 28 44.7272 27.4545 44.7272C27 44.7272 26.5455 45.1818 26.5455 45.7272Z" fill="#9FDB3D"/>
<path d="M36.0909 45.6363C36.3636 46.0909 36.8182 46.5454 37.0909 46.5454C37.2727 46.5454 37.4545 46.0909 37.4545 45.6363C37.4545 45.0909 37 44.7272 36.4545 44.7272C36 44.7272 35.8182 45.0909 36.0909 45.6363Z" fill="#9FDB3D"/>
<path d="M20.1818 47.4545C20.1818 47.9091 20.6364 48.3636 21.0909 48.3636C21.6364 48.3636 22 47.9091 22 47.4545C22 46.9091 21.6364 46.5454 21.0909 46.5454C20.6364 46.5454 20.1818 46.9091 20.1818 47.4545Z" fill="#9FDB3D"/>
<path d="M42 47.4545C42 47.9091 42.4545 48.3636 42.9091 48.3636C43.4545 48.3636 43.8182 47.9091 43.8182 47.4545C43.8182 46.9091 43.4545 46.5454 42.9091 46.5454C42.4545 46.5454 42 46.9091 42 47.4545Z" fill="#9FDB3D"/>
</svg>
