<svg width="64" height="64" viewBox="0 0 64 64" fill="none" xmlns="http://www.w3.org/2000/svg">
<path d="M20.3659 7.42286C17.0864 9.35747 15.4045 11.965 14.6477 15.9183C14.1432 18.4417 13.6386 19.1147 11.4523 19.7876C8.08863 20.7128 5.81818 24.9185 5.81818 29.9653C5.81818 31.984 6.91136 37.9561 8.3409 43.3394C9.68636 48.6386 10.8636 54.0218 10.8636 55.2835C10.8636 56.5452 11.2841 57.9752 11.8727 58.564C13.3023 59.9939 52.1523 59.9939 53.5818 58.564C54.1705 57.9752 54.5909 56.377 54.5909 55.0312C54.5909 53.6013 55.7682 48.218 57.1136 43.1712C58.4591 38.0402 59.6364 32.2364 59.6364 30.1335C59.6364 24.9185 57.3659 20.7128 54.0023 19.7035C51.7318 19.1147 51.2273 18.4417 50.8068 15.7501C49.4614 8.01165 41.725 3.63774 35.25 7.00229C32.9795 8.17988 32.475 8.17988 30.2045 7.00229C26.925 5.32001 23.5614 5.40413 20.3659 7.42286ZM31.2136 10.1145L32.7273 12.0491L34.325 9.94627C36.5114 7.17051 42.4818 7.00229 45.3409 9.5257C47.9477 11.7968 49.7136 16.2548 49.0409 18.7782C48.6205 20.6287 48.7886 20.881 50.8068 20.881C54.0864 20.881 56.0205 22.2269 57.0295 25.1708C58.375 29.0401 58.2068 32.3205 56.1045 39.8907C55.0955 43.5076 53.9182 48.975 53.3295 52.0031L52.4045 57.4705H13.05L12.125 52.0031C11.5364 48.975 10.3591 43.5076 9.34999 39.8907C7.16363 32.0682 7.07954 28.6195 8.67727 24.6662C9.68636 22.2269 10.4432 21.6381 13.2182 21.2175C16.4136 20.7128 16.4977 20.6287 16.4136 17.4324C16.3295 13.8996 18.6 10.1986 21.8795 8.43222C24.6545 6.91817 29.4477 7.84342 31.2136 10.1145Z" fill="#9FDB3D"/>
<path d="M22.2159 11.965C18.4318 15.7501 18.4318 24.3297 22.2159 28.1148C24.7386 30.6382 26.4205 30.6382 28.9432 28.1148C32.7273 24.3297 32.7273 15.7501 28.9432 11.965C27.85 10.8715 26.3364 9.94627 25.5795 9.94627C24.8227 9.94627 23.3091 10.8715 22.2159 11.965ZM29.1954 16.0025C30.625 19.7876 29.9523 24.4979 27.5977 26.8531C25.4954 28.956 23.225 27.8625 21.8795 24.1615C20.6182 20.6287 20.7023 18.8623 22.2159 15.3295C23.225 12.8061 23.8136 12.3856 25.7477 12.6379C27.5136 12.8061 28.2704 13.5632 29.1954 16.0025Z" fill="#9FDB3D"/>
<path d="M36.5114 11.965C34.1568 14.3202 33.1477 18.7782 33.9886 23.068C34.5773 26.3484 37.6886 30.1336 39.875 30.1336C43.7432 30.1336 46.9386 23.068 45.7614 17.0118C45.1727 13.7314 42.0614 9.94627 39.875 9.94627C39.1182 9.94627 37.6045 10.8715 36.5114 11.965ZM43.4909 16.0025C44.9204 19.7876 44.2477 24.4979 41.8932 26.8531C39.7909 28.956 37.5204 27.8625 36.175 24.1615C34.9136 20.6287 34.9977 18.8623 36.5114 15.3295C37.5204 12.8061 38.1091 12.3856 40.0432 12.6379C41.8091 12.8061 42.5659 13.5632 43.4909 16.0025Z" fill="#9FDB3D"/>
<path d="M10.8636 25.0867C9.01363 26.9372 8.76136 28.956 10.1068 32.4046C11.4523 35.9374 14.2273 38.5449 16.8341 38.5449C20.1136 38.5449 21.2068 36.6944 20.7023 32.0682C20.3659 28.956 19.6932 27.526 17.675 25.7596C14.5636 22.9839 13.1341 22.8157 10.8636 25.0867ZM16.8341 27.526C20.9545 31.7317 19.6091 38.9655 15.1523 36.2739C14.3955 35.8533 13.1341 34.0869 12.2091 32.3205C10.9477 29.7971 10.8636 28.7036 11.6204 27.1055C12.7977 24.4979 13.8068 24.582 16.8341 27.526Z" fill="#9FDB3D"/>
<path d="M47.7795 25.7596C45.7614 27.526 45.0886 28.956 44.7523 32.0682C44.2477 36.6944 45.3409 38.5449 48.6205 38.5449C54.5909 38.5449 58.7114 26.8531 53.75 24.2456C51.3955 22.9839 50.6386 23.1521 47.7795 25.7596ZM53.8341 27.1055C54.5909 28.7036 54.5068 29.7971 53.2455 32.3205C52.3205 34.0869 51.0591 35.8533 50.3023 36.2739C45.8455 38.9655 44.5 31.7317 48.6205 27.526C51.6477 24.5821 52.6568 24.4979 53.8341 27.1055Z" fill="#9FDB3D"/>
<path d="M26.925 34.3392C20.1136 39.3019 15.9091 48.975 18.7682 53.2648C20.6182 56.0406 23.3932 56.6294 27.2614 55.0312C31.2136 53.3489 34.2409 53.3489 38.1932 55.0312C44.1636 57.4705 48.5364 54.1901 47.4432 47.8815C46.2659 40.9001 37.9409 31.8158 32.7273 31.8158C31.4659 31.8158 28.8591 32.9934 26.925 34.3392ZM37.6886 36.0215C41.5568 38.8814 44.0795 42.4983 45.3409 47.0404C47.0227 53.2648 44.3318 55.1994 37.4364 52.8442C32.7273 51.162 32.7273 51.162 28.0182 52.8442C23.0568 54.5265 20.7864 54.1901 19.7773 51.4984C19.1045 49.732 20.45 44.7693 22.6364 41.3207C24.4864 38.2085 30.625 33.4981 32.7273 33.4981C33.4841 33.4981 35.7545 34.6757 37.6886 36.0215Z" fill="#9FDB3D"/>
</svg>
