<svg width="64" height="64" viewBox="0 0 64 64" fill="none" xmlns="http://www.w3.org/2000/svg">
<path d="M39.4082 9.2127C37.0741 11.4641 37.6793 16.9192 40.532 20.1231L43.0389 22.894L48.4849 20.0365C51.5105 18.3913 54.5361 16.7461 55.1412 16.2265C56.4379 15.1874 56.5243 10.2518 55.1412 8.86634C53.4987 7.22113 41.0506 7.4809 39.4082 9.2127ZM54.2768 12.2434C54.5361 14.2349 53.8445 14.9277 49.09 17.612C44.0762 20.4694 43.5575 20.556 42.1744 19.3438C41.0506 18.3913 40.6184 16.6595 40.6184 13.7154V9.47247L47.3611 9.73225C53.8445 9.99202 54.0174 10.0786 54.2768 12.2434Z" fill="#9FDB3D"/>
<path fill-rule="evenodd" clip-rule="evenodd" d="M21.514 6.35522C16.5002 9.03952 13.8204 13.6288 13.8204 19.6901C13.8204 23.7599 13.6475 24.2794 12.005 24.2794C9.41165 24.2794 5.43517 28.6955 4.74361 32.2457C3.9656 36.1423 5.95384 40.212 9.75744 42.4634C12.2643 44.022 14.2526 44.1952 32.579 44.1952C51.7698 44.1952 52.7207 44.2818 53.5852 45.927C54.2768 47.1392 54.2768 48.1783 53.5852 49.3906C52.7207 50.9492 51.7698 51.1224 41.9151 51.1224C35.691 51.1224 31.023 50.776 30.6772 50.2565C29.8992 49.0442 21.9462 49.1308 19.958 50.4297C18.6613 51.209 17.8833 51.0358 15.9815 49.5638C12.9559 47.1392 7.76919 47.0526 5.78095 49.2174C3.9656 51.209 3.87916 57.4435 5.60806 58.9155C7.5963 60.5607 9.4981 59.2619 9.4981 56.3178C9.4981 53.2871 11.0541 52.9408 13.2152 55.4519C14.0797 56.491 15.7222 57.1837 17.1917 57.1837C18.6613 57.1837 20.0444 57.6166 20.3038 58.0496C20.9953 59.1753 29.9856 59.1753 30.6772 58.0496C31.023 57.5301 35.6046 57.1837 41.5693 57.1837C53.153 57.1837 56.0921 56.2312 58.3397 51.9883C60.0686 48.6113 59.9821 46.1001 57.9075 42.7231C55.487 38.74 52.2021 38.1338 30.9365 38.1338H12.0915L10.7083 35.9691C9.41165 33.9775 9.41165 33.6312 10.7083 31.6396C12.5237 28.8687 16.4137 28.7821 20.0444 31.3798C23.2429 33.6312 29.3805 34.3239 34.2214 33.025C37.5064 32.1591 54.8819 22.1146 58.0803 19.2572C59.2906 18.3047 59.6364 16.5729 59.6364 12.1568C59.6364 8.86634 59.2041 6.00886 58.599 5.40273C57.9075 4.71001 52.8072 4.36365 41.4829 4.36365C26.2685 4.36365 25.1447 4.45024 21.514 6.35522ZM31.9739 7.82726C33.8757 7.82726 35.4317 7.39431 35.4317 6.96135C35.4317 6.44181 33.8757 6.09545 31.9739 6.09545C30.0721 6.09545 28.5161 6.44181 28.5161 6.96135C28.5161 7.39431 30.0721 7.82726 31.9739 7.82726ZM57.9075 17.7851L57.7346 12.1568L57.4752 6.5284L47.4476 6.26863C37.9386 6.09545 37.3335 6.18204 36.9013 7.82726C36.5555 9.29929 35.7775 9.55906 32.0603 9.55906C28.8618 9.55906 27.4787 9.2127 27.1329 8.26021C25.9227 5.14296 19.2664 8.43339 17.0188 13.2824C13.8204 19.9499 16.2408 27.3967 22.4649 30.5139C28.689 33.7177 33.6163 32.3323 48.0527 23.6733L57.9075 17.7851ZM13.4746 27.743C14.5984 27.743 15.5493 27.3101 15.5493 26.8771C15.5493 26.3576 14.5984 26.0112 13.4746 26.0112C10.3626 26.0112 6.90474 29.3882 6.38607 33.025C5.95384 35.7093 6.29962 36.6618 8.46076 39.0863L11.0541 42.0304L32.3197 42.4634C44.6813 42.7231 53.8445 43.2427 54.3632 43.7622C56.1786 45.6672 56.265 49.0442 54.6225 51.209C52.9801 53.2006 52.2885 53.2871 42.0015 53.5469C36.0368 53.7201 31.1094 54.2396 31.1094 54.6726C31.1094 55.8849 51.0783 55.6251 53.5852 54.3262C57.821 52.1615 58.8584 46.9661 55.8328 42.8963C54.709 41.2511 53.3259 41.1645 33.2706 40.7316L11.9186 40.2986L9.84388 37.8741C8.72009 36.5752 7.76919 34.7568 7.76919 33.8909C7.76919 31.3798 11.1406 27.743 13.4746 27.743ZM18.5749 53.7201C17.8833 53.7201 16.4137 52.7676 15.3764 51.5553C13.3017 49.2174 8.89298 48.6113 7.07763 50.4297C5.8674 51.6419 5.69451 56.8373 6.8183 57.6167C7.25052 57.8764 7.76919 56.8373 7.94208 55.3653C8.11497 53.8067 8.89298 52.1615 9.67099 51.6419C10.9677 50.8626 11.6592 51.1224 13.3881 53.114C15.5493 55.3653 19.8715 56.4044 19.8715 54.586C19.8715 54.0664 19.2664 53.7201 18.5749 53.7201ZM25.5769 57.1837C29.467 57.1837 29.467 57.1837 29.2076 54.3262C28.9483 51.8151 28.6025 51.5553 25.9227 51.2956C22.2056 50.9492 21.6004 51.4687 21.6004 54.7592C21.6004 57.0971 21.7733 57.1837 25.5769 57.1837Z" fill="#9FDB3D"/>
</svg>
