<svg width="64" height="64" viewBox="0 0 64 64" fill="none" xmlns="http://www.w3.org/2000/svg">
<path d="M20.3422 6.29466C19.8241 8.11018 21.033 12.9516 21.9829 12.9516C22.242 12.9516 22.3283 10.9631 22.3283 8.6289C22.242 4.13333 21.1194 2.92298 20.3422 6.29466Z" fill="#9FDB3D"/>
<path d="M42.6216 10.358C42.6216 12.6922 42.7079 14.6806 42.8806 14.6806C43.8305 14.6806 45.0395 9.7528 44.5213 8.02373C43.7442 4.65205 42.7079 5.8624 42.6216 10.358Z" fill="#9FDB3D"/>
<path d="M33.209 8.36954C32.8635 9.57989 32 10.358 30.9637 10.358C28.1141 10.358 25.9552 12.0006 25.9552 14.2484C25.9552 15.6316 25.4371 16.4097 24.6599 16.4097C23.9691 16.4097 22.5874 17.1878 21.5511 18.2252C20.1695 19.6085 19.8241 20.6459 20.3422 22.9802C20.6876 25.1415 20.5149 25.9196 19.6514 25.9196C17.8379 25.9196 15.5927 28.859 15.5927 31.1932C15.5927 33.2681 11.7068 37.1585 9.63427 37.1585C9.11614 37.1585 8.33895 37.9366 7.82083 38.8876C7.3027 39.8386 6.35281 40.6166 5.66198 40.6166C3.58948 40.6166 4.1076 44.5935 6.43916 46.409C7.73447 47.4465 8.68437 49.4349 9.11614 51.6827C9.3752 53.6711 10.4978 56.2647 11.4477 57.475L13.0884 59.6364H50.9116L52.5523 57.475C53.5022 56.2647 54.6248 53.6711 54.8838 51.6827C55.3156 49.4349 56.2655 47.4465 57.5608 46.409C59.8924 44.5935 60.4105 40.6166 58.338 40.6166C57.6472 40.6166 56.6973 39.8386 56.1792 38.8876C55.661 37.9366 54.8838 37.1585 54.3657 37.1585C52.2069 37.1585 48.4073 33.2681 48.4073 31.1068C48.4073 28.7725 46.0757 25.9196 44.1759 25.9196C43.4851 25.9196 43.3124 25.055 43.6578 22.9802C44.1759 20.6459 43.8305 19.6085 42.4489 18.2252C41.4126 17.1878 40.0309 16.4097 39.3401 16.4097C38.4766 16.4097 38.0448 15.5452 38.0448 13.9026C38.0448 12.3464 37.1812 10.2715 35.8859 8.88826L33.7271 6.46757L33.209 8.36954ZM36.0586 15.0265C35.7132 15.8045 34.677 16.4097 33.7271 16.4097C32.7772 16.4097 32 16.7555 32 17.2742C32 17.7065 33.7271 18.1388 35.7996 18.1388C42.2761 18.1388 44.435 22.0292 39.5992 25.055C36.5768 26.8706 37.0949 27.3893 42.2761 27.8215C45.8167 28.1674 47.5437 30.3287 46.1621 32.5765C45.2985 33.9597 43.6578 34.1326 32 34.1326C20.3422 34.1326 18.7015 33.9597 17.8379 32.5765C17.1471 31.539 17.1471 30.6745 17.8379 29.5506C18.6151 28.3403 20.3422 27.9945 27.1642 27.8215C35.9723 27.5622 38.9083 25.9196 30.4456 25.9196C25.3507 25.9196 21.6375 24.277 21.6375 22.0292C21.6375 19.9543 24.2281 18.1388 27.3369 18.1388C30.3593 18.1388 31.3092 17.0149 28.9776 16.0639C26.5597 15.1994 27.5959 13.038 30.7047 12.4328C32.3454 12.1735 33.9861 11.4819 34.3316 10.9631C35.1087 9.66634 36.6631 13.3838 36.0586 15.0265ZM17.5788 36.8991C17.1471 38.023 17.3198 38.1959 18.7015 37.5908C21.5511 36.294 33.6407 36.0346 35.1087 37.245C35.9723 38.023 36.6631 38.023 37.0085 37.4179C37.354 36.9856 40.0309 36.294 42.967 36.0346C47.4574 35.6888 48.6663 35.8617 50.2207 37.245C51.257 38.1095 52.6386 38.8876 53.3295 38.8876C53.934 38.8876 54.4521 39.2334 54.4521 39.7521C54.4521 40.2708 46.4211 40.6166 32 40.6166C17.5788 40.6166 9.54791 40.2708 9.54791 39.7521C9.54791 39.2334 10.066 38.8876 10.6705 38.8876C11.3614 38.8876 12.743 38.1095 13.8656 37.1585C16.2835 34.9972 18.356 34.9107 17.5788 36.8991ZM57.9062 43.0373C57.9062 45.5445 55.3156 45.8038 32 45.8038C8.68437 45.8038 6.09375 45.5445 6.09375 43.0373C6.09375 42.6915 17.7516 42.3457 32 42.3457C46.2484 42.3457 57.9062 42.6915 57.9062 43.0373ZM53.5885 48.8297C53.5885 49.9536 51.6887 50.1265 41.499 50.1265C33.9861 50.1265 29.4094 50.4723 29.4094 50.991C29.4094 51.5098 33.8998 51.8556 41.0672 51.8556C53.5022 51.8556 54.1067 52.1149 51.3433 56.0053C50.048 57.9073 49.6162 57.9073 32 57.9073C14.3837 57.9073 13.952 57.9073 12.6567 56.0053C9.97968 52.2878 10.6705 51.8556 19.565 51.8556C24.8326 51.8556 27.5959 51.5098 27.2505 50.991C26.9915 50.4723 23.1055 50.1265 18.5287 50.1265C11.8795 50.1265 10.4115 49.8671 10.4115 48.8297C10.4115 47.7058 13.3475 47.5329 32 47.5329C50.6525 47.5329 53.5885 47.7058 53.5885 48.8297Z" fill="#9FDB3D"/>
<path d="M16.0245 11.309C15.2473 12.4329 16.2835 18.1388 17.2334 18.1388C17.5789 18.1388 17.8379 16.4097 17.8379 14.2484C17.7516 10.4444 17.1471 9.40698 16.0245 11.309Z" fill="#9FDB3D"/>
<path d="M47.0256 15.9774C46.9393 20.1272 48.0619 21.1646 48.9254 17.793C49.5299 15.1994 49.0981 12.7787 47.9755 12.3464C47.4574 12.1735 47.112 13.8161 47.0256 15.9774Z" fill="#9FDB3D"/>
</svg>
