<svg width="64" height="64" viewBox="0 0 64 64" fill="none" xmlns="http://www.w3.org/2000/svg">
<path d="M19.4112 12.1365C22.6952 15.3859 23.9724 14.9346 21.6006 11.4144C20.7795 10.1507 19.32 9.15785 18.2253 9.15785C16.6745 9.15785 16.8569 9.51889 19.4112 12.1365Z" fill="#9FDB3D"/>
<path d="M42.3994 11.4144C40.0276 14.9346 41.3048 15.3859 44.5888 12.1365C47.143 9.51889 47.3255 9.15785 45.7747 9.15785C44.68 9.15785 43.2204 10.1507 42.3994 11.4144Z" fill="#9FDB3D"/>
<path d="M21.4181 22.697C19.2288 23.5093 17.678 25.4048 19.1375 25.4048C20.962 25.4048 24.7021 23.5996 24.7021 22.697C24.7021 21.6139 24.0636 21.6139 21.4181 22.697Z" fill="#9FDB3D"/>
<path d="M39.2978 22.697C39.2978 23.5996 43.038 25.4048 45.0449 25.4048C46.5957 25.4048 43.7678 22.9678 41.396 22.2457C40.1189 21.8846 39.2978 22.0652 39.2978 22.697Z" fill="#9FDB3D"/>
<path d="M21.0532 27.6614C20.141 28.7445 20.141 29.5568 20.8708 31.2718C22.1479 34.0699 25.9793 34.3407 27.4388 31.7231C29.6282 27.7516 23.9724 24.2314 21.0532 27.6614ZM25.888 28.6542C26.709 29.5568 25.5231 31.7231 24.246 31.7231C22.6952 31.7231 21.6918 30.1887 22.4216 29.0153C23.0601 28.0224 24.9758 27.8419 25.888 28.6542Z" fill="#9FDB3D"/>
<path d="M36.5612 28.1127C35.1928 30.64 36.926 33.5283 39.8452 33.5283C42.6731 33.5283 44.7712 29.8276 42.9468 27.6614C41.3048 25.7659 37.7471 25.9464 36.5612 28.1127ZM41.8521 29.6471C42.3082 31.2718 39.2978 32.2647 38.3856 30.7302C37.9295 30.0984 37.8383 29.1958 38.1119 28.7445C38.7505 27.6614 41.3048 28.2932 41.8521 29.6471Z" fill="#9FDB3D"/>
<path d="M27.4388 47.0675C27.4388 47.5188 27.8949 47.9701 28.3511 47.9701C28.8984 47.9701 29.2633 47.5188 29.2633 47.0675C29.2633 46.5259 28.8984 46.1649 28.3511 46.1649C27.8949 46.1649 27.4388 46.5259 27.4388 47.0675Z" fill="#9FDB3D"/>
<path d="M34.7367 47.0675C34.7367 47.5188 35.1928 47.9701 35.6489 47.9701C36.1963 47.9701 36.5612 47.5188 36.5612 47.0675C36.5612 46.5259 36.1963 46.1649 35.6489 46.1649C35.1928 46.1649 34.7367 46.5259 34.7367 47.0675Z" fill="#9FDB3D"/>
<path fill-rule="evenodd" clip-rule="evenodd" d="M10.2889 4.37401C8.73809 7.44288 8.28197 12.0462 9.1942 16.1079C9.92399 19.3573 9.83277 21.6139 8.64686 26.3977C7.18729 32.1744 7.00485 32.5355 4.99794 32.0841C2.53491 31.4523 2.44369 31.6328 3.72081 34.9725C4.4506 36.7777 4.4506 37.5901 3.62959 38.0414C0.984117 39.7563 7.55218 45.8038 15.1237 48.6019C19.2288 50.1364 19.6849 50.5877 19.9585 53.3858C20.141 55.1007 20.6883 56.9962 21.1444 57.5378C23.425 60.3358 40.575 60.3358 42.8555 57.5378C43.3117 56.9962 43.859 55.1007 44.0415 53.3858C44.3151 50.5877 44.7712 50.1364 48.8763 48.6019C56.4478 45.8038 63.0159 39.7563 60.3704 38.0414C59.5494 37.5901 59.5494 36.7777 60.2792 34.9725C61.5563 31.6328 61.4651 31.4523 59.0021 32.0841C56.9951 32.5355 56.8127 32.1744 55.3531 26.488C54.2584 21.7944 54.076 19.3573 54.7146 15.8372C55.5356 11.5949 54.9882 6.17923 53.5287 3.83244C52.5252 2.298 50.9744 2.56879 44.5888 5.45714C36.3787 9.06758 27.6213 9.06758 19.4112 5.45714C12.6607 2.38827 11.3836 2.298 10.2889 4.37401ZM25.067 11.4144C24.7021 10.602 22.604 9.06758 20.2322 7.89419C13.8466 4.73505 12.2046 4.37401 11.566 6.08897C10.3801 9.2481 11.0187 16.9203 12.8431 20.26C14.6676 23.5093 14.6676 23.5996 12.9344 23.5996C11.1099 23.5996 10.6538 24.412 9.65032 30.2789C9.28543 32.6257 8.55564 33.8894 7.27852 34.1602C5.91017 34.5212 5.72772 34.8822 6.54873 35.8751C7.36974 36.868 7.27852 37.4998 6.45751 38.4927C4.90671 40.2979 7.00485 42.735 12.2958 45.2623C17.0394 47.5188 18.3165 47.5188 18.3165 45.3525C18.3165 43.3668 21.5093 39.1245 22.3303 39.9369C22.6952 40.2979 22.2391 41.7421 21.3269 43.3668C19.8673 45.8941 19.7761 46.3454 21.0532 48.6019C22.604 51.4 27.4388 52.4831 29.8106 50.5877C31.4527 49.2337 31.4527 44.9012 29.7194 43.457C27.8037 41.8323 27.9862 39.2148 30.1755 38.6732C34.6455 37.4998 37.4734 40.8395 34.2806 43.457C32.5473 44.9012 32.5473 49.2337 34.1893 50.5877C36.5612 52.4831 41.396 51.4 42.9468 48.6019C44.2239 46.3454 44.1327 45.8941 42.6731 43.3668C41.7609 41.7421 41.3048 40.2979 41.6697 39.9369C42.4907 39.1245 45.6835 43.3668 45.6835 45.3525C45.6835 47.5188 46.9606 47.5188 51.7042 45.2623C56.9951 42.735 59.0933 40.2979 57.5425 38.4927C56.7215 37.4998 56.6303 36.868 57.4513 35.8751C58.2723 34.8822 58.0898 34.5212 56.7215 34.1602C55.4444 33.8894 54.7146 32.6257 54.3497 30.2789C53.3462 24.412 52.8901 23.5996 51.0656 23.5996C49.3324 23.5996 49.3324 23.5093 51.1569 20.26C52.3428 18.0034 52.9813 15.1151 52.9813 11.8657C52.9813 4.37401 52.434 4.01296 45.7747 6.90132C42.6731 8.34549 39.754 10.241 39.2066 11.1436C38.6593 12.0462 37.9295 12.5878 37.3822 12.317C36.926 11.9559 36.7436 11.3241 37.0173 10.8728C37.3822 10.4215 35.1928 10.0605 32 10.0605C28.8072 10.0605 26.6178 10.4215 26.9827 10.8728C27.2564 11.3241 27.0739 11.9559 26.5266 12.317C25.9793 12.5878 25.3407 12.2267 25.067 11.4144ZM30.9053 41.8323C31.7263 42.6447 32.2737 42.6447 33.0947 41.8323C33.9157 41.02 33.7332 40.7492 32 40.7492C30.2668 40.7492 30.0843 41.02 30.9053 41.8323ZM32.9122 53.7468C32.9122 54.5591 32.5473 55.191 32.0912 55.191C31.6351 55.191 31.0878 54.5591 30.9053 53.7468C30.5404 51.7611 29.2633 53.2052 29.2633 55.7325C29.2633 57.8988 31.179 59.0722 33.3683 58.2598C34.9191 57.628 35.1928 53.8371 33.8245 52.9344C33.3683 52.6637 32.9122 53.0247 32.9122 53.7468ZM27.4388 55.8228C27.4388 55.1007 26.8003 54.1981 25.9793 53.9273C23.3338 52.9345 21.783 53.2955 22.1479 54.9202C22.5128 56.9962 27.4388 57.7183 27.4388 55.8228ZM36.5612 55.7325C36.5612 57.7183 41.4872 56.9962 41.8521 54.9202C42.0345 53.9273 41.5784 53.3858 40.4837 53.476C37.8383 53.5663 36.5612 54.3786 36.5612 55.7325Z" fill="#9FDB3D"/>
</svg>
