<svg width="64" height="64" viewBox="0 0 64 64" fill="none" xmlns="http://www.w3.org/2000/svg">
<path d="M25.0205 2.62313C24.4389 3.29642 22.597 4.25825 20.9491 4.64299C19.3012 5.12391 17.4594 6.37429 16.8777 7.62468C16.2961 8.77888 14.842 10.414 13.6788 11.1835C12.3217 12.1453 11.6431 13.6842 11.6431 15.8965C11.6431 17.724 11.2554 19.4553 10.6737 19.7438C9.41355 20.5133 9.41355 24.7454 10.6737 25.5148C11.2554 25.8034 11.6431 27.5347 11.6431 29.266C11.6431 31.4782 12.3217 32.921 13.7757 33.979L16.0053 35.5179H12.9033C7.86255 35.6141 5.1483 40.2309 9.31661 41.7698C10.286 42.1546 10.6737 44.0782 10.6737 48.7912C10.6737 54.1775 10.286 55.7165 8.73499 57.063C7.08705 58.4096 6.99011 59.0829 7.76561 60.6218C8.73499 62.4493 9.8013 62.5455 32 62.5455C54.1987 62.5455 55.265 62.4493 56.2343 60.6218C57.0098 59.0829 56.9129 58.4096 55.265 57.063C53.714 55.7165 53.3262 54.1775 53.3262 48.7912C53.3262 44.0782 53.714 42.1546 54.6833 41.7698C58.8517 40.2309 56.1374 35.6141 51.0967 35.5179H47.9947L50.2242 33.979C51.6783 32.921 52.3568 31.4782 52.3568 29.266C52.3568 27.5347 52.7446 25.8034 53.3262 25.5148C54.5864 24.7454 54.5864 20.5133 53.3262 19.7438C52.8415 19.4553 52.3568 17.724 52.3568 15.8965C52.3568 13.6842 51.6783 12.1453 50.3212 11.1835C49.1579 10.414 47.7038 8.77888 47.1222 7.62468C46.5406 6.47048 44.7957 5.12391 43.3417 4.73917C41.7907 4.35444 39.9488 3.48879 39.0764 2.8155C37.0407 1.0842 26.3776 0.988013 25.0205 2.62313ZM38.7856 5.12391C40.1427 5.98956 41.8876 6.75903 42.857 6.75903C43.8263 6.75903 45.1835 8.00941 45.959 9.54835C46.8314 11.0873 48.0916 12.53 48.964 12.8186C49.7395 13.2033 50.4181 14.5499 50.4181 15.8003C50.4181 17.1469 50.9028 19.3591 51.5813 20.7056C52.4538 22.5331 52.4538 23.3988 51.5813 24.2644C50.9028 24.9377 50.4181 26.7652 50.4181 28.4003C50.4181 31.7668 46.2498 35.6141 42.5662 35.6141C40.6274 35.6141 40.7243 35.4217 43.4386 32.3439C46.5406 28.8812 48.1885 23.9759 46.9283 21.956C46.5406 21.2827 45.7651 22.5331 44.9896 25.1301C44.311 27.5347 42.3723 30.7087 40.7243 32.2477C37.9132 34.9408 37.1377 35.1332 28.6072 35.4217C20.4644 35.8065 19.3012 35.6141 16.5869 33.5942C14.3574 31.9591 13.5819 30.6126 13.5819 28.4003C13.5819 26.7652 13.0972 24.9377 12.4186 24.2644C11.5462 23.3988 11.5462 22.5331 12.4186 20.7056C13.0972 19.3591 13.5819 17.1469 13.5819 15.8003C13.5819 14.5499 14.2604 13.2033 15.0359 12.8186C15.9084 12.53 17.1685 11.0873 18.041 9.54835C18.8165 8.00941 20.2705 6.75903 21.2399 6.75903C22.2093 6.75903 24.0511 5.98956 25.1174 5.02772C27.8317 2.91168 35.6836 2.91168 38.7856 5.12391ZM54.1017 38.692C53.714 39.6538 48.4793 39.9424 32 39.9424C15.5206 39.9424 10.286 39.6538 9.99517 38.692C9.60742 37.8263 14.4543 37.5378 32 37.5378C49.5457 37.5378 54.3925 37.8263 54.1017 38.692ZM51.3875 56.7745H12.6125V42.347H51.3875V56.7745ZM54.2956 59.66C54.2956 60.2371 46.2498 60.6218 32 60.6218C17.7502 60.6218 9.70436 60.2371 9.70436 59.66C9.70436 59.0829 17.7502 58.6982 32 58.6982C46.2498 58.6982 54.2956 59.0829 54.2956 59.66Z" fill="#9FDB3D"/>
<path d="M28.0255 7.72086C22.2093 9.45217 16.49 16.0888 16.49 21.0904C16.49 24.3606 18.1379 23.3988 18.8165 19.7438C19.592 15.8965 24.245 10.7987 27.9286 10.0293C32.3877 9.06743 33.0663 8.6827 32.4847 7.72086C31.8061 6.66284 31.5153 6.66284 28.0255 7.72086Z" fill="#9FDB3D"/>
<path fill-rule="evenodd" clip-rule="evenodd" d="M20.1736 45.4248C19.8828 46.0981 19.7859 48.2141 19.7859 50.0416C19.8828 52.831 20.2705 53.5042 22.2093 53.6966C23.4695 53.889 24.9235 53.6004 25.5052 53.0233C26.8623 51.6768 37.1377 51.6768 38.4948 53.0233C39.0764 53.6004 40.5305 53.889 41.7907 53.6966C43.7294 53.5042 44.1172 52.831 44.2141 50.0416C44.2141 48.2141 44.1172 46.0981 43.8264 45.4248C43.3417 44.0782 40.1427 43.8859 39.2703 45.2325C38.9795 45.7134 35.6836 46.1943 32 46.1943C28.3164 46.1943 25.0205 45.7134 24.7297 45.2325C23.8572 43.8859 20.6583 44.0782 20.1736 45.4248ZM40.6274 46.8676C39.8519 47.637 36.556 48.118 32 48.118C27.4439 48.118 24.148 47.637 23.3725 46.8676C22.2093 45.9057 22.1124 46.0019 22.694 47.5409C22.9848 48.5027 22.7909 49.9454 22.2093 50.6187C21.3369 51.6768 21.4338 51.9653 22.597 51.9653C23.4695 51.9653 24.4389 51.4844 24.7297 51.0035C25.0205 50.4264 28.3164 50.0416 32 50.0416C35.6836 50.0416 38.9795 50.4264 39.2703 51.0035C39.5611 51.4844 40.5305 51.9653 41.4029 51.9653C42.5662 51.9653 42.6631 51.6768 41.7907 50.6187C41.209 49.9454 41.0152 48.5027 41.306 47.5409C41.8876 46.0019 41.7907 45.9057 40.6274 46.8676Z" fill="#9FDB3D"/>
</svg>
