<svg width="30" height="30" viewBox="0 0 30 30" fill="none" xmlns="http://www.w3.org/2000/svg">
<path d="M14.0073 19.5815L6.39836 12.2239C6.27213 12.1031 6.17194 11.9593 6.10357 11.8009C6.0352 11.6425 6 11.4726 6 11.301C6 11.1294 6.0352 10.9594 6.10357 10.801C6.17194 10.6426 6.27213 10.4989 6.39836 10.378C6.65068 10.1359 6.99201 10 7.3478 10C7.70358 10 8.04491 10.1359 8.29724 10.378L15.0308 16.8127L21.6971 10.378C21.9494 10.1359 22.2908 10 22.6465 10C23.0023 10 23.3437 10.1359 23.596 10.378C23.7232 10.4984 23.8245 10.642 23.8938 10.8004C23.9632 10.9588 23.9993 11.129 24 11.301C23.9993 11.4729 23.9632 11.6431 23.8938 11.8015C23.8245 11.9599 23.7232 12.1035 23.596 12.2239L15.987 19.5815C15.8609 19.7135 15.7078 19.8188 15.5375 19.8908C15.3671 19.9628 15.1832 20 14.9972 20C14.8112 20 14.6272 19.9628 14.4569 19.8908C14.2865 19.8188 14.1334 19.7135 14.0073 19.5815Z" fill="#09035D"/>
</svg>
