<svg width="30" height="30" viewBox="0 0 30 30" fill="none" xmlns="http://www.w3.org/2000/svg">
<path fill-rule="evenodd" clip-rule="evenodd" d="M3.75 15C3.75 14.4822 4.16973 14.0625 4.6875 14.0625H25.3125C25.8303 14.0625 26.25 14.4822 26.25 15C26.25 15.5178 25.8303 15.9375 25.3125 15.9375H4.6875C4.16973 15.9375 3.75 15.5178 3.75 15Z" fill="#0F0F10"/>
<path fill-rule="evenodd" clip-rule="evenodd" d="M3.75 7.5C3.75 6.98223 4.16973 6.5625 4.6875 6.5625H25.3125C25.8303 6.5625 26.25 6.98223 26.25 7.5C26.25 8.01777 25.8303 8.4375 25.3125 8.4375H4.6875C4.16973 8.4375 3.75 8.01777 3.75 7.5Z" fill="#0F0F10"/>
<path fill-rule="evenodd" clip-rule="evenodd" d="M3.75 22.5C3.75 21.9822 4.16973 21.5625 4.6875 21.5625H25.3125C25.8303 21.5625 26.25 21.9822 26.25 22.5C26.25 23.0178 25.8303 23.4375 25.3125 23.4375H4.6875C4.16973 23.4375 3.75 23.0178 3.75 22.5Z" fill="#0F0F10"/>
</svg>
